PathFileType	4	(X/Y/Z)	T1_P1_Vision_Movement_3_0-659.trc
DataRate	CameraRate	NumFrames	NumMarkers	Units	OrigDataRate	OrigDataStartFrame	OrigNumFrames
60	60	7	27	m	60	247	659
Frame#	Time	RHip			RKnee			RAnkle			RBigToe			RSmallToe			RHeel			LHip			LKnee			LAnkle			LBigToe			LSmallToe			LHeel			Neck			Head			Nose			RShoulder			RElbow			RWrist			RThumb			RIndex			RPinky			LShoulder			LElbow			LWrist			LThumb			LIndex			LPinky		
		X1	Y1	Z1	X2	Y2	Z2	X3	Y3	Z3	X4	Y4	Z4	X5	Y5	Z5	X6	Y6	Z6	X7	Y7	Z7	X8	Y8	Z8	X9	Y9	Z9	X10	Y10	Z10	X11	Y11	Z11	X12	Y12	Z12	X13	Y13	Z13	X14	Y14	Z14	X15	Y15	Z15	X16	Y16	Z16	X17	Y17	Z17	X18	Y18	Z18	X19	Y19	Z19	X20	Y20	Z20	X21	Y21	Z21	X22	Y22	Z22	X23	Y23	Z23	X24	Y24	Z24	X25	Y25	Z25	X26	Y26	Z26	X27	Y27	Z27
248	4.133333333333334	-109.72654537265934	3929.949185405442	-633.0760653372222	242.68024244995087	4071.6772138839333	-650.8846784383453	604.9237597975759	4269.5647696239685	-693.9535521759184	686.2357067258787	4184.808818810373	-647.2739227748821	676.7026203529167	4148.9331729433015	-692.4446496831574	641.3809379508175	4316.137924410262	-698.4290722018353	-134.67663419102828	4053.1869496273216	-484.73233741334775	212.19144013998576	4194.278825567907	-496.97718358933105	551.8641472071753	4332.110257951006	-521.6837244161599	632.5743159469814	4214.26708817	-400.6833813384115	613.3858824488433	4275.32531867145	-379.09820373792064	609.1992341757765	4376.375890366264	-546.0758605012113	-709.1896883957224	3818.8777176520016	-579.3945611669467	-940.5320162711198	3640.731241285237	-481.0759735457	-802.9456503733559	3660.5469914609084	-454.2095799588762	-598.885385383888	3753.4832259298146	-704.8787495830052	-338.79481825256573	3637.9051521708807	-697.5807779391599	-534.0838795992581	3537.663527536516	-549.9900989306512	-600.8385236478503	3475.056830417158	-456.7683939908215	-611.6870189971958	3451.5365520329674	-434.9604784704869	-559.424280881944	3468.4630794986588	-437.8247501525937	-644.4214557499603	3940.7853045137967	-462.3056353971936	-406.9795218249603	4077.8553917049185	-404.9553598874109	-154.48311885984648	4092.963264083992	-347.81183434242865	-33.2969070221625	4084.50864122883	-349.21928095848324	4.674543481190177	4127.857427922324	-339.5642722937079	-16.939320063568083	4128.741870308458	-312.07646483841296
249	4.15	-111.05753424762028	3929.0513791378103	-631.977619487429	240.944940241607	4076.551905900825	-652.2697693490431	603.5514769430768	4268.619189920995	-693.5767261810465	685.723343240421	4191.900383808471	-649.6450392651805	675.2122364559002	4150.916768642891	-694.698578249085	639.3635879703315	4315.162442999813	-698.6217536862033	-136.1701352452525	4052.9296433681584	-484.7060816174959	210.72926995885007	4191.240300784398	-496.4450838503061	553.0390709648082	4332.4803752176085	-521.362032659226	633.155861210635	4214.56872574912	-400.72660915689085	612.3770507229489	4270.390683399399	-378.0919558749717	608.5856562529887	4376.177053722238	-546.0445494931063	-709.9584755319642	3818.5789831668994	-579.0545064254327	-942.3879459507731	3647.792833458914	-482.7809216391269	-803.0006779397092	3660.6038582244473	-454.2762791035564	-598.9523794870465	3753.5209626982064	-704.9180801866859	-339.48245689937977	3637.639715347709	-698.4599135566684	-535.2975103215512	3537.4174468869987	-549.9513862486259	-604.2501178381374	3478.888299097007	-461.05758144417683	-616.4357912908448	3451.108994260366	-435.5628513324367	-560.8929977748265	3470.6709229329517	-441.2180625011523	-644.4270374028391	3941.0536185083774	-463.23930160207505	-407.1912137383179	4077.4815377180144	-404.77625273844717	-155.78732464351805	4097.171809814654	-348.50381010109425	-34.41409935996545	4084.4285873995495	-348.11735884135356	1.4773072713477937	4122.018667972693	-334.9077994327364	-17.75549597525814	4128.773854086472	-312.19909371982607
250	4.166666666666667	-112.28878599928917	3929.0578771959545	-632.3979174320541	239.46113558492627	4078.4315601244152	-652.8810750710564	601.9282394275303	4267.492074757441	-692.9414375961563	684.7780764145442	4199.149316562138	-651.6879826518075	673.836405422574	4154.3372332287345	-697.8567298032218	638.3706323811427	4314.73958123964	-698.7191530846604	-136.91671941621976	4052.746273846213	-484.689618303105	209.93778733305675	4186.431197758619	-495.4926348934281	554.3761978430736	4332.40107680035	-520.483622700672	632.7463377718406	4215.084904981056	-400.8934393676061	610.5211577118533	4262.304556113194	-376.408115888782	608.4531311998206	4376.170269331398	-545.9014298249255	-711.028168839787	3818.081044335588	-578.8372848922852	-943.6346366119881	3650.6414871566444	-483.5227906417699	-802.5741477941696	3656.499712916313	-453.38002511211363	-598.9996567294254	3753.5049352744936	-704.926046498314	-341.0387906003394	3637.1688891066583	-699.0924012199539	-535.148160276787	3537.201675378237	-549.8836986141116	-606.6109701507793	3486.3925145808794	-468.2290014643025	-617.8224143622897	3452.9473207863216	-437.4718599818988	-561.1422037832033	3473.0894426432424	-445.92037182398735	-644.3187065092458	3940.3195384557152	-463.47306918651265	-408.9145196050628	4076.5513421299183	-404.4949812019644	-156.94804278451355	4100.050608961143	-349.0200340654923	-34.51606894202666	4085.087935508551	-347.593988007285	0.11378794375798224	4119.963230882866	-333.15325114747674	-19.914685470124297	4127.887238512092	-311.8767104793772
251	4.183333333333334	-112.61988007296692	3927.6653652744862	-632.6852654100456	238.62147297715836	4076.364152195383	-652.4223664007521	600.6896482720578	4266.489897132447	-691.7323871403531	684.2150233860261	4202.495383826017	-652.2824546744398	673.2057846472604	4155.602452469131	-698.845603815169	638.8602064047469	4315.037894388655	-698.6561093934673	-137.111679638381	4052.6757796025627	-484.7118106843186	209.74194990158654	4183.83354124151	-494.94383065248746	555.2128819850236	4332.078086428975	-519.592257503224	631.9484118288005	4215.420215888397	-401.043189128939	608.950746260234	4258.070200293448	-375.4033262424118	608.990098551338	4376.3890136883365	-545.9088037067794	-712.5021454773538	3817.1014763727453	-579.1170033894385	-944.4738750584092	3650.611066867167	-483.60766443284416	-801.8491964798925	3651.636874563485	-452.27117245682905	-599.0001497329016	3753.4760179202085	-704.8799938459956	-342.872151173796	3636.540141795188	-699.2068909914432	-534.9974991718574	3536.8887534282994	-550.489781113105	-608.9326029767137	3495.694191221786	-477.18434639772306	-617.3166265919742	3457.890535320566	-442.19934989989497	-559.7339079438616	3473.2944239813323	-450.38350073319253	-643.923383850005	3937.4009999736836	-462.31669334554545	-410.9136948330529	4075.647391041696	-404.2485021072058	-157.1442619820406	4101.215392705423	-349.21923371302375	-33.067295433312204	4086.6118167875225	-347.706653740404	1.2199469380050105	4122.5876108737075	-334.3792312746141	-22.68690915318599	4126.690516415516	-311.38080417009184
252	4.2	-111.45834701269334	3924.0636166806726	-632.1244850323463	238.45173871270433	4074.7525088749207	-651.9957735206968	600.5468539956926	4265.999402662699	-689.8035577252898	685.0892166800044	4203.3560397896235	-651.9423936393995	673.4130612915251	4152.024797351279	-695.5811339020396	640.761343221486	4315.938937559882	-698.4207691655403	-136.96568121022213	4052.704091114105	-484.7280945271017	209.94806884263008	4186.242760889388	-495.38148470017416	556.010822152515	4332.466045733777	-519.3660243395611	631.9600071739259	4215.513551822712	-401.05269038788674	609.2219699462781	4259.472212399841	-375.68631220062963	610.5713878339129	4377.1802879673305	-546.31460957021	-714.0655866624982	3815.758338245783	-580.1931716067849	-944.7524183813358	3649.906873419218	-483.4968667147634	-801.4084548407104	3649.47761500274	-451.7663524488706	-598.9694757008813	3753.5033511112365	-704.8246250842824	-344.7371412108905	3635.6574385777726	-698.8850201056835	-535.3491650421528	3536.080121234934	-551.87803856901	-611.3841275095623	3503.346001941195	-485.29329934818526	-616.7063541549878	3464.300323082109	-449.04645989416235	-557.62217399179	3470.1788789865404	-452.97979132503224	-643.2786971498035	3932.9251477633293	-460.6406773524899	-411.4433537681757	4075.506652377633	-404.19455690620885	-155.98481443474347	4101.907980540264	-349.2128355350321	-30.9977932584788	4088.1887598404487	-347.96793015420076	3.993867967827781	4128.399671899416	-337.473195889211	-24.476975777950443	4126.8584611988645	-311.62732481090217
253	4.216666666666667	-108.78736471791844	3920.952643275525	-631.9132548923683	238.9148251442111	4076.825320003619	-652.4382336131263	601.6247678366468	4266.218931366878	-687.7131684672529	687.0244829405725	4203.843002273737	-651.4628254793149	674.0186512907625	4145.0824405154335	-689.6255712267057	643.3253395779167	4317.08062909652	-698.1085920454125	-136.24290568800245	4052.9260267558548	-484.66745201718624	210.289523603153	4190.992293342838	-496.28878375511874	557.2066778995797	4333.662461214467	-519.7833855858926	633.2679218598772	4215.427570369725	-400.89637305128485	611.1528898411717	4262.923025204544	-376.64685806034606	613.0333086100499	4378.621147987686	-547.0406933831305	-714.8634314499628	3814.6638011127816	-581.7707150733047	-944.2612614505158	3649.595993750544	-483.39491600167906	-801.416862249195	3651.2463354493248	-452.1501124349552	-598.9413236295557	3753.578716256644	-704.9053417541903	-346.47754500933826	3634.6159683501164	-698.3869557848576	-535.4956917752144	3535.1281612376183	-553.5970455663548	-613.1941521069838	3507.7689813286975	-491.0274933190916	-617.3715458149968	3468.9250062930782	-455.112475697665	-556.2887207748022	3465.915323204456	-453.5458785660436	-642.886894877921	3930.5672754173765	-460.3288763520587	-410.4062218216664	4076.0059685720785	-404.2516870472821	-153.94397013203533	4102.716256441494	-349.1160606564989	-29.99966811904337	4088.6821180639895	-347.9266929599601	6.867320212453348	4134.191300443565	-340.7256804285369	-24.427059944298502	4130.195352695078	-313.90659412286305
254	4.233333333333333	-105.65417396545912	3919.6873915607725	-632.8136094003027	240.10038499546243	4081.5887355601467	-653.5320428117176	603.0473633680917	4266.812361560428	-686.2873938968727	688.7328633628644	4204.411510962869	-651.2150889295533	674.5448857300489	4139.075040045867	-684.69601747461	645.3648602040761	4317.966017388862	-697.8756209662306	-134.65255859719005	4053.4992059262604	-484.50716126454455	210.5481136248819	4194.166290853242	-496.9136522629299	559.053500261927	4335.119124159575	-519.8846807043594	635.2521357713133	4215.263121101939	-400.6634589766659	613.2467407732514	4266.187294330546	-377.58887910817845	615.6240230339803	4380.30983976034	-547.537283825485	-714.5324640100741	3814.277056547183	-583.0328438505412	-943.4680567615378	3649.6790482419638	-483.34253341349967	-801.6641798980871	3655.865576307718	-453.1615457225583	-598.9325862172358	3753.600640039371	-705.336524277765	-347.6595927969681	3633.7766278807567	-697.9938750665682	-535.1998655278437	3534.546034877123	-554.8894463699378	-614.5045436912144	3510.69872767561	-495.47233024214097	-620.1493862959052	3470.0891008334665	-458.30810451082846	-556.4030720525459	3463.051414305458	-453.1585426991326	-643.143900512418	3932.847139841288	-462.10945968020656	-409.09507566161096	4076.5171778298395	-404.2834125115022	-152.39972951479044	4103.442945091969	-349.0615870552471	-30.762558726680645	4088.442207765821	-347.91762302575495	8.609140062538438	4137.315787166723	-342.42946566697367	-23.150339863033484	4137.180074194948	-318.89600474260345
